PathFileType	4	(X/Y/Z)	7_coords_data.trc
DataRate	CameraRate	NumFrames	NumMarkers	Units	OrigDataRate	OrigDataStartFrame	OrigNumFrames
30.0	30.0	8	21	m	30.0	1	73
Frame#	Time	THUMB_TIP	THUMB_IP	THUMB_MCP	THUMB_CMC	INDEX_TIP	INDEX_DIP	INDEX_PIP	INDEX_MCP	MIDDLE_TIP	MIDDLE_DIP	MIDDLE_PIP	MIDDLE_MCP	RING_TIP	RING_DIP	RING_PIP	RING_MCP	PINKY_TIP	PINKY_DIP	PINKY_PIP	PINKY_MCP	WRIST
X1	Y1	Z1	X2	Y2	Z2	X3	Y3	Z3	X4	Y4	Z4	X5	Y5	Z5	X6	Y6	Z6	X7	Y7	Z7	X8	Y8	Z8	X9	Y9	Z9	X10	Y10	Z10	X11	Y11	Z11	X12	Y12	Z12	X13	Y13	Z13	X14	Y14	Z14	X15	Y15	Z15	X16	Y16	Z16	X17	Y17	Z17	X18	Y18	Z18	X19	Y19	Z19	X20	Y20	Z20	X21	Y21	Z21
0	-2.749317978547796e-18	0.518104601719051	-0.014873339850395073	-0.15736977630984306	0.5049374176065818	-0.018221008968445473	-0.13883822553759556	0.4802255036612868	-0.02544618435540391	-0.1213471378130419	0.4750051487215544	-0.02818625916771611	-0.07713028713000314	0.569669406721094	0.01578207063161785	-0.15235794740769637	0.5532351389252039	0.022000430922426983	-0.14797082565116226	0.5297543101033539	0.02536986647439765	-0.1396457181503487	0.4928259803980688	0.015346519888871923	-0.12095167946406721	0.5905836036786356	0.01585821369106999	-0.13350309950590605	0.5747734237999294	0.02253102050881073	-0.12771415647836926	0.5476634975367166	0.028050952575282673	-0.1185494525559993	0.5068850019333184	0.02493708975717679	-0.10056151004792885	0.5895192293076295	0.013276003744495557	-0.11339196217545261	0.5744408233823356	0.020450425019032936	-0.10659715871048547	0.553533616914779	0.029346647512909607	-0.0964027522999874	0.5158877269414072	0.028539228701385033	-0.08167672510404683	0.5911238144747503	-0.0016235260358948844	-0.08262164701369806	0.5763219702490324	0.005253474213403941	-0.07746293834885493	0.5578053807901286	0.012242712561338354	-0.07045590751360276	0.5228392522546708	0.017698071815375638	-0.06349226179808631	0.4622830810018609	-0.023011742144276925	-0.05198982011943093
1	0.03333333333333339	0.519413679137751	-0.0161957097730957	-0.15718814403700943	0.5060670767652583	-0.019706523577756263	-0.13881581725079156	0.48147830080186826	-0.026925356037484804	-0.12114944935751548	0.47483093835099544	-0.0288175330164282	-0.07707993337733837	0.5709583821553093	0.013858576635710107	-0.15160449001828868	0.5544871841717023	0.020150821775728356	-0.1474683942647136	0.5309964266363422	0.02408761267191739	-0.13942502302781273	0.4938386684743451	0.014601339603331653	-0.12090617517912722	0.5910388660449853	0.013423687459624523	-0.13212381841745546	0.5751772061931946	0.02018674854333713	-0.12658588093820744	0.5482484397282952	0.02694758540734088	-0.11772347880463002	0.507036998474414	0.024747531853593907	-0.10060843293444471	0.5908558806545428	0.010065658878148476	-0.11123505328409616	0.5758830307155334	0.017634888740332144	-0.10463804456822079	0.5547425455854548	0.02676583512213726	-0.09515723839798806	0.5167934000589014	0.027829437187103956	-0.0812485382987021	0.5919572928545527	-0.0023084252131240213	-0.08080704146352802	0.5771368138919029	0.004622732175346145	-0.07577589243235167	0.5583870891982672	0.011602323422460814	-0.06940838515429781	0.5233997468999155	0.017101717934002947	-0.06258738889976156	0.4622830810018609	-0.023011742144276925	-0.051989820119430985
2	0.06666666666666676	0.5201438182220282	-0.017173531546162635	-0.15711630381507546	0.5066937038425398	-0.020799848097191154	-0.13884216220868484	0.4822171474529995	-0.027975133234031002	-0.12100306272147154	0.4746053802879122	-0.029322634208903353	-0.07706975825040746	0.5718587597832014	0.01276363552882076	-0.15121295757976488	0.5553567512185669	0.01904458405830156	-0.14718388834447738	0.5318785990095048	0.023321324836109825	-0.1392784667764932	0.4946279324371562	0.014086660083504565	-0.12081918995364066	0.5913954692639922	0.012060308179188683	-0.13118926919326618	0.5754771238247375	0.018801943285828737	-0.12578958081656544	0.5486985557206558	0.026331259499244086	-0.11709318859602585	0.5072158847372621	0.024597292107900737	-0.10059078615973593	0.5919008980102289	0.0077190654350803856	-0.10967249341059904	0.5769981293508316	0.015515254340461526	-0.10318196763558651	0.5556840470415657	0.02472550795512296	-0.09417857368288995	0.5175740701828978	0.027181637471151765	-0.08090009765465911	0.5926385554038954	-0.0032648937923961396	-0.0794531470142143	0.5778243417183027	0.0037421090747489227	-0.07450936468714786	0.558932201737667	0.010764074138359225	-0.06862794712013998	0.523948004611689	0.016426445195473205	-0.06192518974259231	0.4622830810018609	-0.023011742144276925	-0.05198982011943093
3	0.10000000000000014	0.5203998246619747	-0.017832217922633564	-0.15717767664778715	0.5069097348927357	-0.02153455674720428	-0.13894830021177174	0.4825370252979926	-0.028636985884766375	-0.12093867702425815	0.47433889122560136	-0.02969406261875629	-0.07710303870896085	0.5724269074812005	0.012401851781242201	-0.15114616753575105	0.555897877353295	0.018599868738145453	-0.1470994714966683	0.5324429981971415	0.023016334495051693	-0.13920179418062734	0.49521025010337816	0.013789797319342267	-0.12070234621233339	0.5917171028128978	0.011596449118875585	-0.1306416189121381	0.5757364027104075	0.0182240683517797	-0.1252851380209274	0.5490530645259921	0.026129668419427432	-0.11663005275811622	0.5074145983670273	0.024486197211532224	-0.10051530611668363	0.5927460987125894	0.006175796456597049	-0.10867531942188374	0.5778776256258689	0.014056987178433511	-0.10220884117824092	0.556430723030969	0.023220885519638745	-0.093477671996686	0.5182456228623942	0.026592904326970812	-0.08062277221960035	0.593188132325694	-0.0044554313170395154	-0.07852079638805504	0.578402707819192	0.0026460256965659124	-0.07362584690451168	0.5594410739806236	0.009758391068048433	-0.06808664840702155	0.524483826519906	0.015688781417072084	-0.061475689983437554	0.4622830810018608	-0.023011742144276925	-0.05198982011943104
4	0.13333333333333353	0.5202712219157186	-0.018200561739177834	-0.1573707610696055	0.5067938681488272	-0.021946914428402242	-0.13914095643625857	0.48251874624169955	-0.028954264976375876	-0.12096307166679465	0.47404292546408877	-0.02993330520222126	-0.0771784631567029	0.5727047505303562	0.012673579191331164	-0.15135822935978527	0.556153383613954	0.018729142353005157	-0.1471890078504864	0.5327280209612518	0.023113468446882113	-0.13918651434583812	0.495605636584854	0.013691231109439483	-0.1205643201741547	0.5920234549017911	0.011885302014191357	-0.13042090050258326	0.5759768816434667	0.018321965016939723	-0.1250286045116089	0.5493307865646108	0.026279505141621362	-0.11630663671685904	0.5076256265272808	0.024413170093526504	-0.100389842418102	0.5934498550957799	0.0053547859005277365	-0.10819200578539118	0.578584246968963	0.013202044665567847	-0.1016778500538767	0.5570352599604202	0.02221765533290687	-0.09304420064006458	0.5188215600627618	0.0260603235081176	-0.08040822519584451	0.5936208783274188	-0.005837783945483288	-0.07796614184013956	0.5788841869626349	0.0013731552029689897	-0.07308430978481195	0.5599118641510048	0.008617712892165397	-0.06775708067211195	0.5250047978726353	0.014904148606597944	-0.061210256950195774	0.4622830810018608	-0.023011742144276925	-0.051989820119430985
5	0.1666666666666669	0.5198353027613656	-0.018310550412611426	-0.15767806829510428	0.5064135718277559	-0.022075906919235222	-0.13941117942141235	0.4822315246575932	-0.028972619225534624	-0.12106768046335742	0.47372883237310504	-0.030049892916317544	-0.07729058936184113	0.572726294855561	0.013475511095183856	-0.15179728090202804	0.5561598719586842	0.019340530493574648	-0.14742061780574844	0.5327706133855477	0.023549872728485632	-0.13922099254916775	0.4958367394168136	0.013766215095988743	-0.12041128518855881	0.5923084250685986	0.012798140235392719	-0.13046813170010063	0.5761959935376619	0.018980677264723855	-0.12497579285022753	0.549538272557681	0.02672356455355296	-0.11609755211312345	0.5078412751912588	0.024376391659814867	-0.10022307224663701	0.5940420937229993	0.005161797815830482	-0.10815492852810898	0.5791550581355993	0.01287717635261365	-0.10153306282019581	0.5575303112017618	0.02166242905633231	-0.09285149418432753	0.5193134961224831	0.025581077236162986	-0.08024831698018875	0.5939476700907975	-0.007365959188854743	-0.0777421692697906	0.5792769399454594	-3.435488107783602e-05	-0.07284142899133728	0.560341598422919	0.007376358706381203	-0.0676120710432328	0.5255069864930453	0.014087662621557584	-0.061101183050550734	0.4622830810018609	-0.023011742144276925	-0.05198982011943104
6	0.20000000000000023	0.5191606901386819	-0.01819712211401059	-0.1580725908854066	0.5058281908036119	-0.021963188592641125	-0.1397406186849342	0.4817361276629243	-0.028740226618025888	-0.12123482907120503	0.4734070163302221	-0.030059707455663665	-0.077431006467161	0.5725232162724094	0.014700649473786909	-0.1524075715096308	0.555952049207827	0.020338436624594336	-0.14775872453861827	0.5326081199378324	0.024259725653416164	-0.1392914763675812	0.4959281250922233	0.013986339750700738	-0.12024753732598636	0.5925528761765018	0.014215869115538404	-0.13072571410092942	0.5763786241498275	0.020094205992737146	-0.12508313251660208	0.549675779567329	0.02740761534031455	-0.11597919463688738	0.5080539017218259	0.024373480696296745	-0.1000242194700004	0.5945325713645495	0.005493747685067829	-0.10848571596689904	0.5796083086434249	0.012999272489390035	-0.10170829170376211	0.5579328858715638	0.021489981072670084	-0.09286160337338134	0.5197315694871327	0.025152484947753018	-0.08013500422586278	0.5941772105481197	-0.008991316210053002	-0.07779971391309837	0.5795868686548128	-0.0015317536739707371	-0.07285230547971716	0.5607270735265552	0.006070182210822228	-0.06762442660548484	0.5259855352886824	0.013254753866863811	-0.061121281060010135	0.4622830810018608	-0.023011742144276925	-0.051989820119430985
7	0.23333333333333361	0.5183106645194401	-0.01789761756475916	-0.15852274541624894	0.5050919146694954	-0.02165269001250214	-0.1401063374245478	0.48108787211544934	-0.02830760849044811	-0.12144252213625695	0.4730864288231518	-0.029982952407628383	-0.07758981266467113	0.5721294309549374	0.01623841737958165	-0.15313138978087515	0.5555662739534654	0.021624112061952583	-0.1481658965593643	0.5322797219158331	0.025175004455100902	-0.13938310142279586	0.49590571917617254	0.014320955333813612	-0.12007616908314533	0.5927339997274009	0.01602152172635074	-0.1311370743396817	0.576505768886535	0.021558878329942188	-0.1253076485000102	0.5497417985703799	0.02827778355276611	-0.11592917551542076	0.5082560946566596	0.02440167495966239	-0.09980279731206726	0.5949201085939289	0.006240834430917719	-0.1090995892358177	0.5799515545394149	0.01347840529232569	-0.10213109172608142	0.5582505700872806	0.02162778866238646	-0.09302972899866552	0.5200847850458781	0.02477201338954893	-0.08006024415775675	0.5943176567125004	-0.010663650659032964	-0.07808817421472825	0.5798192856175529	-0.003072588146078692	-0.07307090349075751	0.5610655608517183	0.004736113004443765	-0.06776675296978313	0.526435169135865	0.012421622512889474	-0.06124353564992119	0.4622830810018609	-0.023011742144276925	-0.051989820119430985
